{"title":"The White Storm 2013 BRRip 720p x264 AAC - PRiSTiNE [P2PDL]","uid":9582836,"size":900938196,"categoryP":"video","categoryS":"hd___movies","magnet":"?xt=urn:btih:ecf6593f1226e1c8af12d3b74f9c630cf58e305a&amp;dn=The+White+Storm+2013+BRRip+720p+x264+AAC+-+PRiSTiNE+%5BP2PDL%5D&amp;tr=udp%3A%2F%2Ftracker.openbittorrent.com%3A80&amp;tr=udp%3A%2F%2Fopen.demonii.com%3A1337&amp;tr=udp%3A%2F%2Ftracker.coppersurfer.tk%3A6969&amp;tr=udp%3A%2F%2Fexodus.desync.com%3A6969","seeders":8,"leechers":6,"uploader":"ValidusVyto","files":-1,"time":1391792682,"description":"The.White.Storm.2013.BRRip.720p.x264.AAC-PRiSTiNE\n\n\n\nGenre: Action | Drama  &lt;a href=&quot;\nhttp://www.imdb.com/title/tt2957774/&quot; rel=&quot;nofollow&quot; target=&quot;_NEW&quot;&gt;\nhttp://www.imdb.com/title/tt2957774/&lt;/a&gt;\n\n\nFormat                                   : MPEG-4\nFile size                                : 849 MiB\nDuration                                 : 2h 14mn\nOverall bit rate                         : 884 Kbps\n\nVideo\nFormat                                   : AVC\nWidth                                    : 1 280 pixels\nHeight                                   : 544 pixels\nDisplay aspect ratio                     : 2.35:1\nFrame rate mode                          : Constant\nFrame rate                               : 24.000 fps\nBit depth                                : 8 bits\nStream size                              : 768 MiB (90%)\nWriting library                          : x264 core 140 r2377\n\nAudio\nFormat                                   : AAC\nBit rate                                 : 80.0 Kbps\nChannel(s)                               : 2 channels\nChannel positions                        : Front: L R\nSampling rate                            : 48.0 KHz\nStream size                              : 76.8 MiB (9%)\nLanguage                                 : Chinese (Mandarin)\n\nSubtitle                                 : Yes (English)\n &lt;a href=&quot;\nhttp://someimage.com/fnIMQEn&quot; rel=&quot;nofollow&quot; target=&quot;_NEW&quot;&gt;\nhttp://someimage.com/fnIMQEn&lt;/a&gt; &lt;a href=&quot;\nhttp://someimage.com/J6SwpO2&quot; rel=&quot;nofollow&quot; target=&quot;_NEW&quot;&gt;\nhttp://someimage.com/J6SwpO2&lt;/a&gt; &lt;a href=&quot;\nhttp://someimage.com/C8Kimp7&quot; rel=&quot;nofollow&quot; target=&quot;_NEW&quot;&gt;\nhttp://someimage.com/C8Kimp7&lt;/a&gt; &lt;a href=&quot;\nhttp://someimage.com/qio3xmk&quot; rel=&quot;nofollow&quot; target=&quot;_NEW&quot;&gt;\nhttp://someimage.com/qio3xmk&lt;/a&gt; &lt;a href=&quot;\nhttp://someimage.com/6OFc1dO&quot; rel=&quot;nofollow&quot; target=&quot;_NEW&quot;&gt;\nhttp://someimage.com/6OFc1dO&lt;/a&gt; &lt;a href=&quot;\nhttp://someimage.com/II2iFLF&quot; rel=&quot;nofollow&quot; target=&quot;_NEW&quot;&gt;\nhttp://someimage.com/II2iFLF&lt;/a&gt; &lt;a href=&quot;\nhttp://someimage.com/Upymo9u&quot; rel=&quot;nofollow&quot; target=&quot;_NEW&quot;&gt;\nhttp://someimage.com/Upymo9u&lt;/a&gt; &lt;a href=&quot;\nhttp://someimage.com/BorSwGL&quot; rel=&quot;nofollow&quot; target=&quot;_NEW&quot;&gt;\nhttp://someimage.com/BorSwGL&lt;/a&gt;\n\n----------------------------------------------------------------------------------------------------\n\n\nRecommend to you to use latest version of VLC player. Install K-Lite Codec Pack or shark007 codecs\nin case of any kind of problem in playback (For non-VLC Media Player users). Alternatively, install\nCore AVC codecs, the fastest decoder that there is coupled with Community Center Codec Pack and play\non Windows Media Player Classic. Check sample to be sure.\nEnjoy!\n\nEncoder Notes:Looking For Early Access To Anything You Can Provide DVDScr, R5, DVDR, BluRay, Direct\nAudio, Music Releases and Seedboxes. We require dedicated servers, so as to do more \nand fast releases of movies.","torrent":{"xt":"urn:btih:ecf6593f1226e1c8af12d3b74f9c630cf58e305a","amp;dn":"The+White+Storm+2013+BRRip+720p+x264+AAC+-+PRiSTiNE+%5BP2PDL%5D","amp;tr":["udp%3A%2F%2Ftracker.openbittorrent.com%3A80","udp%3A%2F%2Fopen.demonii.com%3A1337","udp%3A%2F%2Ftracker.coppersurfer.tk%3A6969","udp%3A%2F%2Fexodus.desync.com%3A6969"],"infoHash":"ecf6593f1226e1c8af12d3b74f9c630cf58e305a","infoHashBuffer":{"type":"Buffer","data":[236,246,89,63,18,38,225,200,175,18,211,183,79,156,99,12,245,142,48,90]},"announce":[],"urlList":[]}}